# xmcd
#
# Track frame offsets:
# 150
# 12885
# 27477
# 39245
# 61052
# 80095
# 95462
# 106577
# 120665
# 131757
# 144282
# 163277
# 177592
# 187990
# 197627
# 209187
# 223965
# 234400
# 244250
#
# Disc length: 3438 seconds
#
# Revision: 0
# Processed by: cddbd v1.4PL0 Copyright (c) Steve Scherf et al.
# Submitted via: Audion 3.0.2 (http://www.panic.com/audion/)
#
DISCID=130d6c13
DTITLE=Various Artist - Gymboree Music: Country
DYEAR=1900
DGENRE=
TTITLE0=The Nature of Things
TTITLE1=There's A Great Big Candy Roundup
TTITLE2=The Little Engine That Could
TTITLE3=City of New Orleans
TTITLE4=Playin' In The Same Band
TTITLE5=The Swing
TTITLE6=Grandma's Feather Bed
TTITLE7=Orange Blossom Special
TTITLE8=A Hundred Years From Now
TTITLE9=Before You Grow
TTITLE10=Mama Don't Allow No Music
TTITLE11=Tennessee Flat Top Box
TTITLE12=Old Train
TTITLE13=I Love
TTITLE14=On The Road Again
TTITLE15=Choo Choo Ch'Boogie
TTITLE16=Rusty The Rocking Horse
TTITLE17=On The Atchinson, Topeka and the Sante Fe
TTITLE18=Happy Trails
EXTD=
EXTT0=
EXTT1=
EXTT2=
EXTT3=
EXTT4=
EXTT5=
EXTT6=
EXTT7=
EXTT8=
EXTT9=
EXTT10=
EXTT11=
EXTT12=
EXTT13=
EXTT14=
EXTT15=
EXTT16=
EXTT17=
EXTT18=
PLAYORDER=
